<?xml version="1.0" encoding="UTF-8" standalone="no"?>
<svg xmlns:dc="http://purl.org/dc/elements/1.1/" xmlns:cc="http://creativecommons.org/ns#" xmlns:rdf="http://www.w3.org/1999/02/22-rdf-syntax-ns#" xmlns:svg="http://www.w3.org/2000/svg" xmlns="http://www.w3.org/2000/svg" xmlns:sodipodi="http://sodipodi.sourceforge.net/DTD/sodipodi-0.dtd" xmlns:inkscape="http://www.inkscape.org/namespaces/inkscape" id="bjsLogo" width="1024" height="1024" version="1.1" sodipodi:docname="ideas.svg" inkscape:version="0.92.3 (2405546, 2018-03-11)">
    <metadata id="metadata15">
        <rdf:RDF>
            <cc:Work rdf:about="">
                <dc:format>image/svg+xml</dc:format>
                <dc:type rdf:resource="http://purl.org/dc/dcmitype/StillImage" />
                <dc:title />
            </cc:Work>
        </rdf:RDF>
    </metadata>
    <defs id="defs13" />
    <sodipodi:namedview pagecolor="#ffffff" bordercolor="#666666" borderopacity="1" objecttolerance="10" gridtolerance="10" guidetolerance="10" inkscape:pageopacity="0.67058824" inkscape:pageshadow="2" inkscape:window-width="1366" inkscape:window-height="717" id="namedview11" showgrid="false" inkscape:pagecheckerboard="true" inkscape:snap-bbox="true" inkscape:object-paths="true" inkscape:snap-intersection-paths="true" inkscape:snap-smooth-nodes="true" inkscape:snap-midpoints="true" inkscape:zoom="0.7375" inkscape:cx="456.90189" inkscape:cy="348.79658" inkscape:window-x="0" inkscape:window-y="25" inkscape:window-maximized="1" inkscape:current-layer="bjsLogo" inkscape:snap-global="false" showguides="true" inkscape:guide-bbox="true" />
    <g id="g832">
        <polygon style="fill:#364148" transform="matrix(0.84372307,0,0,0.84372307,-9.224546,841.83644)" points="89.2,181 86.2,111 105.7,105.5 105.7,157.6 159.8,139.1 165.5,89.5 182.4,85.1 173.8,149.2 " class="bjsLogoParts" id="bjsLogoDarkBlue01" />
        <polygon style="fill:#e02127" transform="matrix(0.84372307,0,0,0.84372307,-9.224546,841.83644)" points="111.5,98.2 90.2,82.3 128.3,73.8 156.8,89.7 152.4,133.2 111.7,146.7 " class="bjsLogoParts" id="bjsLogoRed01" />
        <polygon style="fill:#61b0e1" transform="matrix(0.84372307,0,0,0.84372307,-9.224546,841.83644)" points="66.5,178.9 65.9,165.8 85.5,188.8 172.8,156 170.5,170.4 86.8,204.3 " class="bjsLogoParts" id="bjsLogoLightBlue01" />
        <polygon style="fill:#405a68" transform="matrix(0.84372307,0,0,0.84372307,-9.224546,841.83644)" points="45.9,151.7 60,170.1 59,148.2 82.7,176.4 80.1,110.4 59.8,92.5 63.1,141.5 41.8,118.3 " class="bjsLogoParts" id="bjsLogoDarkBlue02" />
        <polygon style="fill:#3b789a" transform="matrix(0.84372307,0,0,0.84372307,-9.224546,841.83644)" points="83.6,105.4 63.1,87.3 81.5,83.4 103.6,99.8 " class="bjsLogoParts" id="bjsLogoLightBlue02" />
        <polygon style="fill:#3b789a" transform="matrix(0.84372307,0,0,0.84372307,-9.224546,841.83644)" points="62.9,62.2 82.8,76.9 128.9,67 161.5,84.3 179.1,79.7 121.7,51 " class="bjsLogoParts" id="bjsLogoLightBlue03" />
        <polygon style="fill:#2cb24b" transform="matrix(0.84372307,0,0,0.84372307,-9.224546,841.83644)" points="56.2,124.9 52.6,83.6 57.4,82.4 74.9,78.6 55.1,64 34.9,67.3 40.3,107.4 56.3,125.4 " class="bjsLogoParts" id="bjsLogoGreen01" />
    </g>
    <polygon style="fill:#f8f9fa;fill-opacity:1" transform="matrix(0.84372307,0,0,0.84372307,247.04664,486.5822)" points="105.7,157.6 159.8,139.1 165.5,89.5 182.4,85.1 173.8,149.2 89.2,181 86.2,111 105.7,105.5 " class="bjsLogoParts" id="polygon884" />
    <polygon style="fill:#f8f9fa;fill-opacity:1" transform="matrix(0.84372307,0,0,0.84372307,247.04664,486.5822)" points="156.8,89.7 152.4,133.2 111.7,146.7 111.5,98.2 90.2,82.3 128.3,73.8 " class="bjsLogoParts" id="polygon886" />
    <polygon style="fill:#f8f9fa;fill-opacity:1" transform="matrix(0.84372307,0,0,0.84372307,247.04664,486.5822)" points="172.8,156 170.5,170.4 86.8,204.3 66.5,178.9 65.9,165.8 85.5,188.8 " class="bjsLogoParts" id="polygon888" />
    <polygon style="fill:#f8f9fa;fill-opacity:1" transform="matrix(0.84372307,0,0,0.84372307,247.04664,486.5822)" points="82.7,176.4 80.1,110.4 59.8,92.5 63.1,141.5 41.8,118.3 45.9,151.7 60,170.1 59,148.2 " class="bjsLogoParts" id="polygon890" />
    <polygon style="fill:#f8f9fa;fill-opacity:1" transform="matrix(0.84372307,0,0,0.84372307,247.04664,486.5822)" points="103.6,99.8 83.6,105.4 63.1,87.3 81.5,83.4 " class="bjsLogoParts" id="polygon892" />
    <polygon style="fill:#f8f9fa;fill-opacity:1" transform="matrix(0.84372307,0,0,0.84372307,247.04664,486.5822)" points="161.5,84.3 179.1,79.7 121.7,51 62.9,62.2 82.8,76.9 128.9,67 " class="bjsLogoParts" id="polygon894" />
    <polygon style="fill:#f8f9fa;fill-opacity:1" transform="matrix(0.84372307,0,0,0.84372307,247.04664,486.5822)" points="74.9,78.6 55.1,64 34.9,67.3 40.3,107.4 56.3,125.4 56.2,124.9 52.6,83.6 57.4,82.4 " class="bjsLogoParts" id="polygon896" />
    <path style="opacity:1;vector-effect:none;fill:#e02127;fill-opacity:1;stroke:none;stroke-width:0.84372306;stroke-linecap:butt;stroke-linejoin:miter;stroke-miterlimit:4;stroke-dasharray:none;stroke-dashoffset:0;stroke-opacity:1" d="m 320.2818,658.95482 -34.50827,-44.37983 -1.41102,-11.49466 34.82245,42.79679 m 17.6888,6.35766 -13.26066,5.37081 -3.83753,-77.37013 16.4526,-4.64048 v 11.6767 l 41.76065,-11.62533 -1.44727,14.30818 -40.31338,10.67029 0.64559,51.60996" id="path909" inkscape:connector-curvature="0" sodipodi:nodetypes="ccccccccccccc" />
    <polygon style="fill:#fdfefe;fill-opacity:1" transform="matrix(0.84372307,0,0,0.84372307,715.61982,640.49078)" points="105.7,157.6 159.8,139.1 165.5,89.5 182.4,85.1 173.8,149.2 89.2,181 86.2,111 105.7,105.5 " class="bjsLogoParts" id="polygon843" />
    <polygon style="fill:#fdfefe;fill-opacity:1" transform="matrix(0.84372307,0,0,0.84372307,715.61982,640.49078)" points="156.8,89.7 152.4,133.2 111.7,146.7 111.5,98.2 90.2,82.3 128.3,73.8 " class="bjsLogoParts" id="polygon845" />
    <polygon style="fill:#fdfefe;fill-opacity:1" transform="matrix(0.84372307,0,0,0.84372307,715.61982,640.49078)" points="172.8,156 170.5,170.4 86.8,204.3 66.5,178.9 65.9,165.8 85.5,188.8 " class="bjsLogoParts" id="polygon847" />
    <polygon style="fill:#fdfefe;fill-opacity:1" transform="matrix(0.84372307,0,0,0.84372307,715.61982,640.49078)" points="82.7,176.4 80.1,110.4 59.8,92.5 63.1,141.5 41.8,118.3 45.9,151.7 60,170.1 59,148.2 " class="bjsLogoParts" id="polygon849" />
    <polygon style="fill:#fdfefe;fill-opacity:1" transform="matrix(0.84372307,0,0,0.84372307,715.61982,640.49078)" points="103.6,99.8 83.6,105.4 63.1,87.3 81.5,83.4 " class="bjsLogoParts" id="polygon851" />
    <polygon style="fill:#fdfefe;fill-opacity:1" transform="matrix(0.84372307,0,0,0.84372307,714.60287,640.49078)" points="179.1,79.7 121.7,51 62.9,62.2 82.8,76.9 128.9,67 161.5,84.3 " class="bjsLogoParts" id="polygon853" />
    <polygon style="fill:#fdfefe;fill-opacity:1" transform="matrix(0.84372307,0,0,0.84372307,715.61982,640.49078)" points="74.9,78.6 55.1,64 34.9,67.3 40.3,107.4 56.3,125.4 56.2,124.9 52.6,83.6 57.4,82.4 " class="bjsLogoParts" id="polygon855" />
    <path style="opacity:1;vector-effect:none;fill:#405a68;fill-opacity:1;stroke:none;stroke-width:0.80938101;stroke-linecap:butt;stroke-linejoin:miter;stroke-miterlimit:4;stroke-dasharray:none;stroke-dashoffset:0;stroke-opacity:1" d="m 354.93349,889.08475 h 82.35463 v 18.30509 h -82.35463 z" id="rect866" inkscape:connector-curvature="0" />
    <path transform="rotate(-90)" style="opacity:1;vector-effect:none;fill:#405a68;fill-opacity:1;stroke:none;stroke-width:0.96030903;stroke-linecap:butt;stroke-linejoin:miter;stroke-miterlimit:4;stroke-dasharray:none;stroke-dashoffset:0;stroke-opacity:1" d="m -885.69495,441.55862 h 115.93222 l 0.0847,9.15254 -7.88135,9.15255 -108.13561,0 z" id="rect910" inkscape:connector-curvature="0" sodipodi:nodetypes="cccccc" />
    <path style="opacity:1;vector-effect:none;fill:#e02127;fill-opacity:1;stroke:none;stroke-width:0.84372307;stroke-linecap:butt;stroke-linejoin:miter;stroke-miterlimit:4;stroke-dasharray:none;stroke-dashoffset:0;stroke-opacity:1;font-variant-east_asian:normal" d="m 463.72879,784.67799 44.23729,0 9.32203,9.15255 v 9.15254 h -53.55932 z" id="rect912" inkscape:connector-curvature="0" sodipodi:nodetypes="cccccc" />
    <text xml:space="preserve" style="font-style:normal;font-variant:normal;font-weight:normal;font-stretch:normal;font-size:103.62173462px;line-height:125%;font-family:Hack;-inkscape-font-specification:'Hack, Normal';font-variant-ligatures:normal;font-variant-caps:normal;font-variant-numeric:normal;font-feature-settings:normal;text-align:start;writing-mode:lr-tb;text-anchor:start;opacity:1;vector-effect:none;fill:#405a68;fill-opacity:1;stroke:none;stroke-width:1.86575878;stroke-linecap:butt;stroke-linejoin:miter;stroke-miterlimit:4;stroke-dasharray:none;stroke-dashoffset:0;stroke-opacity:1" x="649.60034" y="520.3772" id="text842"><tspan sodipodi:role="line" id="tspan840" x="649.60034" y="520.3772" style="font-style:normal;font-variant:normal;font-weight:normal;font-stretch:normal;font-size:103.62173462px;font-family:Hack;-inkscape-font-specification:'Hack, Normal';font-variant-ligatures:normal;font-variant-caps:normal;font-variant-numeric:normal;font-feature-settings:normal;text-align:start;writing-mode:lr-tb;text-anchor:start;stroke-width:1.86575878">_r</tspan></text>
    <text id="text860" y="392.91956" x="677.39697" style="font-style:normal;font-variant:normal;font-weight:normal;font-stretch:normal;font-size:103.62133789px;line-height:125%;font-family:'Noto Sans Display';-inkscape-font-specification:'Noto Sans Display, Normal';font-variant-ligatures:normal;font-variant-caps:normal;font-variant-numeric:normal;font-feature-settings:normal;text-align:start;writing-mode:lr;text-anchor:start;opacity:1;vector-effect:none;fill:#405a68;fill-opacity:1;stroke:none;stroke-width:1.86575878;stroke-linecap:butt;stroke-linejoin:miter;stroke-miterlimit:4;stroke-dasharray:none;stroke-dashoffset:0;stroke-opacity:1;" xml:space="preserve"><tspan style="font-style:normal;font-variant:normal;font-weight:normal;font-stretch:normal;font-size:103.62133789px;font-family:'Noto Sans Display';-inkscape-font-specification:'Noto Sans Display, Normal';font-variant-ligatures:normal;font-variant-caps:normal;font-variant-numeric:normal;font-feature-settings:normal;text-align:start;writing-mode:lr;text-anchor:start;stroke-width:1.86575878;" y="392.91956" x="677.39697" id="tspan858" sodipodi:role="line">_r</tspan></text>
    <g id="g875" transform="matrix(1.0755173,0,0,1.0755173,-123.33417,-106.4174)">
        <path style="opacity:1;vector-effect:none;fill:#405a68;fill-opacity:1;stroke:none;stroke-width:0.80938101;stroke-linecap:butt;stroke-linejoin:miter;stroke-miterlimit:4;stroke-dasharray:none;stroke-dashoffset:0;stroke-opacity:1" d="m 699.13869,813.34043 h 82.35463 v 18.30509 h -82.35463 z" id="path866" inkscape:connector-curvature="0" />
        <path style="opacity:1;vector-effect:none;fill:#405a68;fill-opacity:1;stroke:none;stroke-width:0.96030903;stroke-linecap:butt;stroke-linejoin:miter;stroke-miterlimit:4;stroke-dasharray:none;stroke-dashoffset:0;stroke-opacity:1" d="m 785.76382,809.95063 v -115.93222 l 9.15254,-0.0847 9.15255,7.88135 v 108.13561 z" id="path868" inkscape:connector-curvature="0" sodipodi:nodetypes="cccccc" />
        <path style="opacity:1;vector-effect:none;fill:#e02127;fill-opacity:1;stroke:none;stroke-width:0.84372306;stroke-linecap:butt;stroke-linejoin:miter;stroke-miterlimit:4;stroke-dasharray:none;stroke-dashoffset:0;stroke-opacity:1" d="m 807.93399,708.93367 h 44.23729 l 9.32203,9.15255 v 9.15254 h -53.55932 z" id="path870" inkscape:connector-curvature="0" sodipodi:nodetypes="cccccc" />
    </g>
</svg>
