<svg id="bjsLogo" width="160" height="160">
    <circle r="80" cy="80" cx="80" id="backgroundCircle" style="fill:#ffffff;stroke:none;"/>
    <polygon id="bjsLogoDarkBlue01" class="bjsLogoParts" points="159.8,139.1 165.5,89.5 182.4,85.1 173.8,149.2 89.2,181 86.2,111 105.7,105.5 105.7,157.6 " transform="matrix(0.84372307,0,0,0.84372307,-9.224546,-22.16356)" style="fill:#364148" />
    <polygon id="bjsLogoRed01" class="bjsLogoParts" points="128.3,73.8 156.8,89.7 152.4,133.2 111.7,146.7 111.5,98.2 90.2,82.3 " transform="matrix(0.84372307,0,0,0.84372307,-9.224546,-22.16356)" style="fill:#e02127" />
    <polygon id="bjsLogoLightBlue01" class="bjsLogoParts" points="85.5,188.8 172.8,156 170.5,170.4 86.8,204.3 66.5,178.9 65.9,165.8 " transform="matrix(0.84372307,0,0,0.84372307,-9.224546,-22.16356)" style="fill:#61b0e1" />
    <polygon id="bjsLogoDarkBlue02" class="bjsLogoParts" points="80.1,110.4 59.8,92.5 63.1,141.5 41.8,118.3 45.9,151.7 60,170.1 59,148.2 82.7,176.4 " transform="matrix(0.84372307,0,0,0.84372307,-9.224546,-22.16356)" style="fill:#405a68" />
    <polygon id="bjsLogoLightBlue02" class="bjsLogoParts" points="83.6,105.4 63.1,87.3 81.5,83.4 103.6,99.8 " transform="matrix(0.84372307,0,0,0.84372307,-9.224546,-22.16356)" style="fill:#3b789a" />
    <polygon id="bjsLogoLightBlue03" class="bjsLogoParts" points="128.9,67 161.5,84.3 179.1,79.7 121.7,51 62.9,62.2 82.8,76.9 " transform="matrix(0.84372307,0,0,0.84372307,-9.224546,-22.16356)" style="fill:#3b789a" />
    <polygon id="bjsLogoGreen01" class="bjsLogoParts" points="55.1,64 34.9,67.3 40.3,107.4 56.3,125.4 56.2,124.9 52.6,83.6 57.4,82.4 74.9,78.6 " transform="matrix(0.84372307,0,0,0.84372307,-9.224546,-22.16356)" style="fill:#2cb24b" />
</svg>
