<svg width="160" height="160" id="bjsLogo">
  <path class="bjsLogoWireframe" d="m 61.995965,34.18769 21.3,15.9" id="bjsLogoW2" />
  <path class="bjsLogoWireframe" d="m 100.09597,25.68769 -38.100005,8.5" id="bjsLogoW3" />
  <path class="bjsLogoWireframe" d="m 100.09597,25.68769 28.49999,15.9" id="bjsLogoW4" />
  <path class="bjsLogoWireframe" d="m 128.59596,41.58769 -45.299995,8.5" id="bjsLogoW5" />
  <path class="bjsLogoWireframe" d="m 83.295965,50.08769 16.800005,-24.4" id="bjsLogoW6" />
  <path class="bjsLogoWireframe" d="m 83.295965,50.08769 0.2,48.5" id="bjsLogoW7" />
  <path class="bjsLogoWireframe" d="m 83.495965,98.58769 40.700005,-13.5" id="bjsLogoW8" />
  <path class="bjsLogoWireframe" d="m 128.59596,41.58769 -4.39999,43.5" id="bjsLogoW9" />
  <path class="bjsLogoWireframe" d="m 83.295965,50.08769 40.900005,35" id="bjsLogoW10" />
  <path class="bjsLogoWireframe" d="m 137.29596,41.38769 16.9,-4.4" id="bjsLogoW11" />
  <path class="bjsLogoWireframe" d="m 154.19596,36.98769 -8.6,64.1" id="bjsLogoW12" />
  <path class="bjsLogoWireframe" d="m 131.59596,90.98769 -54.099995,18.5" id="bjsLogoW13" />
  <path class="bjsLogoWireframe" d="m 145.59596,101.08769 -14,-10.1" id="bjsLogoW14" />
  <path class="bjsLogoWireframe" d="m 137.29596,41.38769 -5.7,49.6" id="bjsLogoW15" />
  <path class="bjsLogoWireframe" d="m 77.495965,109.48769 -16.5,23.4" id="bjsLogoW16" />
  <path class="bjsLogoWireframe" d="m 57.995965,62.88769 19.5,46.6" id="bjsLogoW17" />
  <path class="bjsLogoWireframe" d="m 131.59596,90.98769 22.6,-54" id="bjsLogoW18" />
  <path class="bjsLogoWireframe" d="m 57.995965,62.88769 19.5,-5.5" id="bjsLogoW19" />
  <path class="bjsLogoWireframe" d="m 77.495965,109.48769 68.099995,-8.4" id="bjsLogoW20" />
  <path class="bjsLogoWireframe" d="m 60.995965,132.88769 84.599995,-31.8" id="bjsLogoW21" />
  <path class="bjsLogoWireframe" d="m 57.995965,62.88769 3,70" id="bjsLogoW22" />
  <path class="bjsLogoWireframe" d="m 77.495965,57.38769 0,52.1" id="bjsLogoW23" />
  <path class="bjsLogoWireframe" d="m 34.895965,39.18769 18.4,-3.9" id="bjsLogoW24" />
  <path class="bjsLogoWireframe" d="m 55.395965,57.28769 -2.1,-22" id="bjsLogoW25" />
  <path class="bjsLogoWireframe" d="m 34.895965,39.18769 20.5,18.1" id="bjsLogoW26" />
  <path class="bjsLogoWireframe" d="m 55.395965,57.28769 20,-5.6" id="bjsLogoW27" />
  <path class="bjsLogoWireframe" d="m 75.395965,51.68769 -22.1,-16.4" id="bjsLogoW28" />
  <path class="bjsLogoWireframe" d="m 26.895965,15.88769 19.8,14.6" id="bjsLogoW30" />
  <path class="bjsLogoWireframe" d="m 24.395965,35.48769 3.6,41.3" id="bjsLogoW33" />
  <path class="bjsLogoWireframe" d="m 27.995965,76.78769 -15.9,-17.5" id="bjsLogoW34" />
  <path class="bjsLogoWireframe" d="m 31.595965,44.38769 3.3,49" id="bjsLogoW35" />
  <path class="bjsLogoWireframe" d="m 51.895965,62.28769 2.6,66" id="bjsLogoW36" />
  <path class="bjsLogoWireframe" d="m 54.495965,128.28769 -19.6,-34.9" id="bjsLogoW37" />
  <path class="bjsLogoWireframe" d="m 34.895965,93.38769 -4.1,6.7" id="bjsLogoW38" />
  <path class="bjsLogoWireframe" d="m 30.795965,100.08769 -17.2,-29.9" id="bjsLogoW39" />
  <path class="bjsLogoWireframe" d="m 13.595965,70.18769 21.3,23.2" id="bjsLogoW40" />
  <path class="bjsLogoWireframe" d="m 31.595965,44.38769 20.3,17.9" id="bjsLogoW41" />
  <path class="bjsLogoWireframe" d="m 54.495965,128.28769 -23.7,-28.2" id="bjsLogoW42" />
  <path class="bjsLogoWireframe" d="m 17.695965,103.58769 13.1,-3.5" id="bjsLogoW43" />
  <path class="bjsLogoWireframe" d="m 17.695965,103.58769 14.1,18.4" id="bjsLogoW44" />
  <path class="bjsLogoWireframe" d="m 31.795965,121.98769 -1,-21.9" id="bjsLogoW45" />
  <path class="bjsLogoWireframe" d="m 13.595965,70.18769 4.1,33.4" id="bjsLogoW46" />
  <path class="bjsLogoWireframe" d="m 34.895965,93.38769 17,-31.1" id="bjsLogoW47" />
  <path class="bjsLogoWireframe" d="m 38.295965,130.78769 -0.6,-13.1" id="bjsLogoW49" />
  <path class="bjsLogoWireframe" d="m 144.59596,107.88769 -2.3,14.4" id="bjsLogoW50" />
  <path class="bjsLogoWireframe" d="m 57.295965,140.68769 87.299995,-32.8" id="bjsLogoW51" />
  <path class="bjsLogoWireframe" d="m 38.295965,130.78769 20.3,25.4" id="bjsLogoW52" />
  <path id="bjsLogoW1" d="m 93.495965,2.88769 57.399995,28.7" class="bjsLogoWireframe" />
  <path id="bjsLogoW53" d="m 133.29596,36.18769 17.6,-4.6" class="bjsLogoWireframe" />
  <path id="bjsLogoW54" d="m 100.69597,18.88769 -7.200005,-16" class="bjsLogoWireframe" />
  <path id="bjsLogoW55" d="m 133.29596,36.18769 -32.59999,-17.3" class="bjsLogoWireframe" />
  <path id="bjsLogoW56" d="m 34.695965,14.08769 58.8,-11.2" class="bjsLogoWireframe" />
  <path id="bjsLogoW57" d="m 34.695965,14.08769 19.9,14.7" class="bjsLogoWireframe" />
  <path id="bjsLogoW58" d="m 100.69597,18.88769 -66.000005,-4.8" class="bjsLogoWireframe" />
  <path id="bjsLogoW59" d="m 54.595965,28.78769 46.100005,-9.9" class="bjsLogoWireframe" />
  <path id="bjsLogoW60" d="m 24.395965,35.48769 22.3,-5" class="bjsLogoWireframe" />
  <path id="bjsLogoW61" d="m 26.895965,15.88769 -2.5,19.6" class="bjsLogoWireframe" />
  <path id="bjsLogoW62" d="m 6.695965,19.18769 20.2,-3.3" class="bjsLogoWireframe" />
  <path id="bjsLogoW63" d="m 24.395965,35.48769 -17.7,-16.3" class="bjsLogoWireframe" />
  <path id="bjsLogoW64" d="m 6.695965,19.18769 5.4,40.1" class="bjsLogoWireframe" />
  <path id="bjsLogoW65" d="m 24.395965,35.48769 -12.3,23.8" class="bjsLogoWireframe" />
  <path class="bjsLogoWireframe" d="m 57.295965,140.68769 84.999995,-18.4" id="bjsLogoW66" />
  <path class="bjsLogoWireframe" d="m 58.595965,156.18769 -1.3,-15.5" id="bjsLogoW48" />
  <path class="bjsLogoWireframe" d="m 142.29596,122.28769 -83.699995,33.9" id="bjsLogoW32" />
  <path id="bjsLogoW31" d="m 37.695965,117.68769 19.6,23" class="bjsLogoWireframe" />
  <path id="bjsLogoW29" d="m 38.295965,130.78769 19,9.9" class="bjsLogoWireframe" />
</svg>